<?xml version="1.0" standalone="no"?>
<!DOCTYPE svg PUBLIC "-//W3C//DTD SVG 20010904//EN"
 "http://www.w3.org/TR/2001/REC-SVG-20010904/DTD/svg10.dtd">
<svg version="1.0" xmlns="http://www.w3.org/2000/svg"
 width="791.000000pt" height="791.000000pt" viewBox="0 0 791.000000 791.000000"
 preserveAspectRatio="xMidYMid meet">
<metadata>
Created by potrace 1.11, written by Peter Selinger 2001-2013
</metadata>
<g transform="translate(0.000000,791.000000) scale(0.100000,-0.100000)"
fill="#000000" stroke="none">
<path d="M3869 6977 c-206 -126 -323 -203 -336 -224 -18 -27 -13 -108 12 -228
9 -38 34 -169 56 -290 46 -253 47 -257 62 -252 29 9 46 110 46 274 1 139 4
170 22 218 35 95 108 152 205 162 99 10 191 -42 239 -137 20 -41 23 -63 27
-230 4 -148 9 -195 24 -234 20 -53 39 -68 48 -39 9 30 126 684 126 704 0 43
-26 71 -124 131 -56 34 -141 88 -191 120 -108 70 -136 73 -216 25z"/>
<path d="M3933 6492 c-31 -5 -83 -67 -83 -100 0 -35 33 -88 59 -97 20 -6 21
-15 23 -193 2 -103 1 -246 -2 -319 -5 -130 -5 -132 -35 -163 -40 -42 -55 -50
-125 -61 -60 -9 -132 -37 -160 -61 -8 -7 -39 -41 -67 -74 -59 -69 -104 -88
-171 -73 -20 4 -138 65 -262 134 -282 158 -270 150 -270 181 0 38 -27 82 -60
99 -61 32 -143 -10 -156 -80 -16 -85 89 -157 161 -109 23 15 27 14 92 -22 82
-45 385 -214 430 -240 67 -39 94 -136 58 -205 -11 -21 -19 -65 -22 -114 -4
-68 -1 -90 20 -146 26 -68 26 -105 -1 -156 -17 -31 -42 -47 -272 -176 -113
-63 -221 -123 -240 -134 -35 -20 -35 -20 -73 0 -45 23 -75 18 -120 -22 -28
-26 -32 -35 -31 -77 1 -40 6 -52 33 -76 66 -59 166 -21 178 67 4 32 12 45 37
59 132 79 392 224 441 247 109 52 167 33 258 -85 40 -51 103 -85 192 -100 86
-15 122 -36 147 -87 15 -30 18 -71 18 -334 l1 -299 -29 -23 c-35 -27 -56 -74
-48 -106 21 -86 129 -115 192 -52 46 46 24 151 -37 170 -20 7 -20 13 -17 314
l3 308 28 36 c35 46 67 63 137 72 90 12 167 59 224 138 33 45 92 77 143 77 40
0 64 -12 395 -200 166 -94 168 -95 168 -130 1 -59 48 -100 114 -100 54 0 87
35 93 96 6 59 -18 96 -72 114 -30 10 -41 9 -75 -8 l-39 -19 -133 74 c-73 41
-182 102 -243 135 -200 110 -222 153 -161 313 23 61 20 133 -10 211 -28 75
-27 124 2 170 18 27 100 79 284 179 69 38 155 86 192 107 65 38 67 39 97 24
39 -21 76 -20 111 1 78 46 63 164 -24 193 -65 21 -136 -29 -136 -97 0 -36 13
-27 -295 -200 -219 -123 -218 -123 -269 -123 -74 0 -100 16 -174 109 -41 51
-110 87 -191 100 -80 13 -124 41 -150 95 -20 40 -21 59 -21 339 0 244 2 297
14 297 7 0 25 12 40 26 29 29 35 83 15 128 -16 34 -75 57 -126 48z m129 -1166
c60 -19 83 -31 135 -74 82 -66 123 -161 123 -280 0 -95 -26 -163 -91 -235
-196 -220 -545 -130 -616 157 -28 117 3 240 85 328 94 101 237 142 364 104z"/>
<path d="M3881 5187 c-151 -58 -200 -250 -93 -369 49 -54 102 -78 178 -78 227
-1 314 293 125 424 -33 23 -54 29 -108 32 -40 2 -82 -2 -102 -9z"/>
<path d="M3300 6377 c-58 -35 -156 -92 -219 -127 -123 -70 -149 -96 -132 -129
23 -42 47 -36 179 40 312 179 342 198 342 224 0 28 -24 55 -48 55 -9 0 -64
-29 -122 -63z"/>
<path d="M4454 6415 c-15 -22 -15 -27 -1 -47 13 -20 224 -148 405 -246 55 -29
67 -33 89 -23 20 9 24 17 21 43 -3 31 -14 39 -233 165 -126 73 -237 133 -247
133 -10 0 -25 -11 -34 -25z"/>
<path d="M3350 6235 c-25 -13 -88 -51 -140 -83 -77 -47 -96 -63 -98 -84 -2
-20 4 -31 22 -43 25 -17 28 -16 121 36 119 66 185 109 198 130 13 21 -16 69
-41 69 -9 -1 -37 -12 -62 -25z"/>
<path d="M4476 6241 c-35 -38 -16 -62 108 -135 174 -102 172 -101 201 -82 15
10 25 26 25 41 0 21 -20 36 -136 105 -158 93 -173 99 -198 71z"/>
<path d="M2590 6213 c-17 -7 -347 -185 -378 -204 -43 -27 -46 -56 -35 -289 8
-165 15 -224 27 -248 9 -18 18 -32 19 -32 2 0 102 -34 223 -75 120 -42 273
-94 339 -117 66 -22 126 -43 133 -46 7 -2 12 4 12 14 0 32 -94 108 -229 184
-144 81 -190 122 -211 192 -27 91 -10 173 51 243 46 52 99 74 179 75 62 0 73
-4 245 -90 125 -63 192 -92 220 -93 25 -1 40 2 40 10 0 6 -128 118 -284 247
-286 238 -301 248 -351 229z"/>
<path d="M5203 6173 c-32 -26 -88 -72 -124 -103 -36 -30 -90 -75 -119 -100
-30 -25 -74 -60 -99 -79 -25 -19 -77 -62 -114 -95 -53 -47 -65 -62 -53 -68 33
-19 146 27 364 147 56 31 73 35 133 35 180 0 291 -155 231 -323 -23 -65 -74
-113 -179 -171 -130 -73 -226 -141 -247 -176 -10 -17 -16 -33 -13 -36 2 -2
159 48 348 112 239 81 352 124 369 140 24 23 25 31 39 258 l14 234 -22 30
c-14 20 -78 61 -194 124 -262 142 -249 139 -334 71z"/>
<path d="M3338 6055 c-57 -30 -75 -57 -59 -91 17 -38 87 -26 144 24 23 21 22
69 -2 82 -26 13 -29 13 -83 -15z"/>
<path d="M4490 6062 c-34 -27 -21 -64 34 -96 59 -34 103 -35 112 -1 9 35 0 51
-43 79 -56 36 -77 39 -103 18z"/>
<path d="M3396 5908 c-21 -29 -20 -41 3 -62 46 -41 107 18 66 64 -24 26 -50
25 -69 -2z"/>
<path d="M4450 5910 c-24 -24 -24 -29 -4 -58 17 -24 53 -29 72 -10 19 19 15
66 -7 78 -28 14 -38 13 -61 -10z"/>
<path d="M3712 5865 c-101 -47 -366 -206 -434 -261 -62 -49 -71 -68 -35 -80
68 -23 229 5 337 59 106 53 232 195 255 290 7 25 5 27 -21 27 -16 -1 -62 -16
-102 -35z"/>
<path d="M4093 5865 c7 -46 73 -140 139 -201 106 -97 230 -144 375 -144 96 0
112 13 72 57 -77 83 -500 323 -569 323 -20 0 -22 -4 -17 -35z"/>
<path d="M4791 5285 c-117 -134 -139 -353 -52 -530 63 -129 102 -148 118 -58
14 81 10 542 -5 586 -8 20 -17 37 -22 37 -4 0 -22 -16 -39 -35z"/>
<path d="M3076 5285 c-33 -131 -26 -583 9 -632 13 -17 15 -17 43 10 61 59 112
204 112 320 0 161 -137 412 -164 302z"/>
<path d="M2431 5256 c-16 -20 -16 -543 0 -563 16 -19 46 -16 69 7 19 19 20 33
20 270 0 274 -4 300 -50 300 -15 0 -33 -6 -39 -14z"/>
<path d="M5412 5258 c-9 -9 -12 -85 -12 -278 0 -246 1 -268 18 -283 23 -21 46
-22 66 -1 14 13 16 52 16 275 0 160 -4 268 -10 280 -12 22 -59 26 -78 7z"/>
<path d="M2576 5148 c-13 -18 -16 -53 -16 -175 0 -140 2 -155 20 -173 11 -11
27 -20 35 -20 8 0 24 9 35 20 18 18 20 33 20 173 0 167 -8 197 -55 197 -13 0
-31 -10 -39 -22z"/>
<path d="M5266 5154 c-13 -13 -16 -44 -16 -179 0 -164 0 -165 25 -181 23 -15
27 -15 50 0 25 16 25 17 25 181 0 173 -6 195 -50 195 -10 0 -26 -7 -34 -16z"/>
<path d="M2738 5059 c-14 -8 -18 -24 -18 -77 0 -75 10 -92 52 -92 34 0 48 28
48 93 0 70 -36 103 -82 76z"/>
<path d="M5117 5052 c-11 -12 -17 -36 -17 -71 0 -68 13 -91 50 -91 38 0 50 23
50 93 0 77 -44 113 -83 69z"/>
<path d="M2894 5020 c-30 -12 -37 -39 -19 -66 17 -27 56 -32 75 -10 29 36 -13
93 -56 76z"/>
<path d="M4978 5018 c-24 -20 -28 -44 -12 -67 17 -23 53 -28 72 -9 19 19 14
55 -10 72 -27 19 -30 19 -50 4z"/>
<path d="M2888 4745 c-3 -3 -137 -51 -299 -106 -162 -55 -309 -106 -328 -112
-68 -24 -73 -39 -84 -297 -10 -222 -10 -232 9 -257 18 -23 279 -173 392 -225
56 -25 71 -20 183 72 226 184 463 386 467 398 6 19 -50 15 -115 -10 -32 -11
-108 -50 -169 -85 -117 -68 -159 -83 -234 -83 -118 0 -232 115 -232 234 0 123
48 182 231 286 135 77 221 144 221 173 0 16 -30 24 -42 12z"/>
<path d="M4980 4745 c0 -36 96 -111 252 -199 149 -85 192 -134 204 -237 9 -81
-9 -132 -69 -194 -61 -62 -110 -80 -200 -72 -47 4 -80 18 -187 77 -71 39 -152
80 -180 91 -58 22 -110 25 -110 6 0 -14 523 -450 568 -473 15 -7 37 -11 52 -7
43 11 393 206 418 233 23 24 24 30 18 130 -3 58 -8 159 -12 225 -8 157 -19
182 -89 205 -22 7 -53 18 -70 25 -16 6 -52 19 -80 28 -27 9 -148 50 -269 92
-207 71 -246 82 -246 70z"/>
<path d="M3251 4432 c-14 -4 -26 -12 -28 -18 -10 -31 224 -189 442 -299 125
-62 175 -77 175 -51 0 34 -62 138 -120 200 -66 70 -135 114 -228 145 -64 22
-202 35 -241 23z"/>
<path d="M4510 4430 c-96 -17 -203 -69 -282 -139 -83 -73 -170 -241 -125 -241
55 0 379 176 525 285 78 58 91 89 41 99 -39 8 -100 6 -159 -4z"/>
<path d="M3396 4105 c-19 -19 -19 -17 -6 -49 7 -20 17 -26 39 -26 39 0 57 23
45 58 -11 32 -53 41 -78 17z"/>
<path d="M4447 4099 c-20 -28 -10 -58 21 -66 31 -7 56 7 60 36 7 48 -53 70
-81 30z"/>
<path d="M3287 4002 c-10 -10 -17 -25 -17 -34 0 -29 86 -88 128 -88 27 0 44
24 40 57 -2 22 -14 34 -53 55 -59 33 -76 34 -98 10z"/>
<path d="M4528 3990 c-51 -32 -65 -58 -48 -90 15 -29 56 -25 113 10 39 25 47
35 47 60 0 19 -7 33 -19 40 -29 15 -41 12 -93 -20z"/>
<path d="M3637 3928 c-3 -24 -17 -106 -32 -183 -83 -447 -90 -492 -81 -528 4
-19 54 -55 198 -148 231 -147 236 -148 343 -80 39 24 117 73 175 108 120 73
160 111 160 151 0 26 -104 610 -122 685 -17 73 -53 24 -68 -95 -5 -40 -10
-131 -10 -203 0 -104 -4 -138 -19 -170 -45 -98 -117 -145 -224 -145 -76 0
-131 24 -176 75 -59 67 -64 91 -71 305 -5 147 -10 204 -23 233 -22 50 -43 48
-50 -5z"/>
<path d="M3122 3928 c-7 -7 -12 -24 -12 -39 0 -24 15 -36 137 -108 145 -86
184 -97 204 -60 20 39 -3 63 -144 143 -135 76 -163 86 -185 64z"/>
<path d="M4619 3869 c-68 -39 -132 -78 -141 -87 -35 -30 -16 -82 30 -82 21 0
245 124 285 158 34 30 12 82 -35 82 -8 0 -70 -32 -139 -71z"/>
<path d="M2950 3840 c-20 -36 -1 -58 98 -116 53 -31 129 -76 167 -99 168 -103
215 -121 243 -93 17 17 15 53 -5 70 -43 37 -442 258 -466 258 -16 0 -30 -8
-37 -20z"/>
<path d="M4845 3827 c-52 -29 -328 -190 -377 -221 -40 -24 -22 -86 25 -86 30
0 214 102 424 235 50 31 65 64 43 91 -19 22 -49 17 -115 -19z"/>
<path d="M435 2484 c-67 -17 -128 -50 -166 -91 -63 -68 -84 -123 -84 -218 1
-69 4 -87 30 -133 39 -71 99 -125 171 -152 75 -28 194 -25 265 7 51 23 143
105 137 123 -2 6 -29 25 -61 42 l-57 31 -21 -27 c-76 -97 -243 -77 -300 37
-43 83 -5 199 77 233 40 17 137 18 167 3 12 -6 36 -25 53 -41 l32 -30 56 32
c31 18 56 36 56 41 0 21 -76 91 -127 115 -43 21 -73 28 -132 30 -42 2 -85 1
-96 -2z"/>
<path d="M4660 2478 c-103 -29 -170 -128 -148 -217 15 -60 61 -95 165 -127
160 -47 178 -57 178 -90 0 -25 -5 -31 -42 -42 -66 -21 -128 2 -166 61 -16 25
-23 27 -82 27 -63 0 -65 -1 -65 -25 0 -56 57 -133 124 -167 58 -30 176 -38
238 -17 95 32 139 81 145 161 3 41 -1 60 -16 86 -33 52 -69 69 -262 126 -61
18 -83 35 -74 58 20 51 154 50 192 -1 16 -22 132 -26 140 -5 18 46 -68 149
-143 172 -48 14 -134 14 -184 0z"/>
<path d="M7372 2472 c-29 -11 -66 -32 -82 -47 -59 -56 -75 -151 -35 -211 20
-31 91 -67 190 -94 144 -40 171 -63 124 -106 -14 -13 -36 -18 -73 -18 -61 0
-98 19 -121 64 -15 29 -19 30 -80 30 -35 0 -67 -4 -70 -10 -13 -21 21 -96 60
-136 51 -50 116 -74 206 -74 103 0 185 37 222 99 19 33 25 118 9 147 -22 40
-82 83 -140 99 -163 46 -197 60 -200 82 -5 32 33 53 95 53 46 0 58 -4 85 -30
28 -27 38 -31 85 -29 71 3 78 9 64 50 -17 50 -58 97 -104 121 -59 30 -165 35
-235 10z"/>
<path d="M898 2283 c-2 -109 -2 -244 0 -300 l3 -102 82 -3 c45 -2 148 -2 230
0 l147 3 0 65 0 64 -129 0 c-71 0 -143 3 -160 6 -30 6 -32 10 -30 43 1 20 1
123 0 229 l-1 192 -70 0 -69 0 -3 -197z"/>
<path d="M1477 2473 c-4 -3 -7 -138 -7 -300 l0 -293 75 0 75 0 0 300 0 300
-68 0 c-38 0 -72 -3 -75 -7z"/>
<path d="M1759 2288 c0 -275 2 -402 7 -407 5 -5 125 -3 130 2 2 2 4 65 5 141
1 75 5 136 10 134 5 -2 37 -64 72 -138 l63 -135 84 -3 85 -2 72 147 71 148 1
-147 1 -148 75 0 75 0 0 300 0 300 -84 0 -83 0 -36 -77 c-77 -169 -169 -353
-176 -353 -3 0 -22 33 -41 73 -18 39 -64 136 -102 215 l-67 142 -81 0 -80 0
-1 -192z"/>
<path d="M2815 2343 c-32 -76 -70 -165 -85 -198 -49 -110 -110 -253 -110 -259
0 -3 33 -6 73 -6 l74 0 19 43 c10 23 23 45 29 49 14 10 267 10 282 0 7 -4 19
-26 26 -47 l14 -40 76 -3 c43 -2 77 0 77 3 0 6 -71 175 -105 250 -12 28 -51
116 -85 198 l-63 147 -82 0 -82 0 -58 -137z m178 -105 c14 -35 33 -80 41 -100
l16 -38 -94 0 -95 0 35 83 c20 45 40 92 45 105 12 32 23 22 52 -50z"/>
<path d="M3252 2413 l3 -68 108 -3 108 -3 -1 -127 c-1 -70 -1 -173 -1 -229 l1
-103 70 0 70 0 1 98 c1 53 0 154 -1 224 -2 100 1 129 11 133 8 2 57 6 109 7
l95 3 3 68 3 67 -291 0 -291 0 3 -67z"/>
<path d="M3935 2467 c-3 -7 -4 -140 -3 -297 l3 -285 60 -5 c33 -3 138 -4 233
-2 l172 3 0 64 0 64 -157 3 -158 3 0 50 c0 37 4 50 15 51 8 1 68 2 133 3 l117
1 0 60 0 59 -132 3 -133 3 -3 48 -3 47 145 0 c79 0 151 3 160 6 12 5 16 21 16
70 l0 64 -230 0 c-177 0 -232 -3 -235 -13z"/>
<path d="M5539 2288 c-1 -230 1 -401 6 -408 2 -3 33 -3 69 -2 l65 4 3 71 3 72
48 1 c55 2 61 -3 112 -86 l36 -60 90 0 90 0 -59 86 -60 86 39 39 c77 77 87
210 22 303 -16 22 -48 50 -72 63 -41 22 -55 23 -218 23 l-173 0 -1 -192z m336
27 c17 -16 25 -35 25 -57 0 -70 -49 -101 -151 -96 l-64 3 -3 88 -3 87 86 0
c78 0 88 -2 110 -25z"/>
<path d="M6563 2465 c-3 -9 -4 -96 -1 -193 4 -169 6 -180 33 -240 52 -115 145
-169 279 -160 49 3 86 13 121 30 61 32 85 57 122 128 27 54 28 59 31 253 l4
198 -74 -3 -73 -3 -5 -180 c-6 -213 -15 -241 -86 -276 -77 -37 -152 -9 -185
69 -16 37 -19 70 -19 218 l0 174 -70 0 c-54 0 -72 -4 -77 -15z"/>
<path d="M6223 2252 l-73 -3 0 -64 0 -63 78 -4 c42 -2 116 -1 165 0 l87 4 0
64 0 64 -79 0 c-44 0 -85 1 -93 3 -7 2 -46 1 -85 -1z"/>
<path d="M5095 2240 c-3 -5 -5 -35 -3 -65 l3 -55 162 0 163 0 0 65 0 65 -159
0 c-96 0 -162 -4 -166 -10z"/>
<path d="M3440 1365 c0 -218 7 -253 59 -279 16 -9 46 -16 66 -16 34 0 35 1 35
40 0 37 -3 41 -30 47 -17 3 -35 13 -39 22 -5 9 -9 97 -8 196 l2 180 -43 3 -42
3 0 -196z"/>
<path d="M1320 1490 l0 -40 68 -1 c37 -1 78 -2 92 -2 l25 -2 3 -187 2 -188 40
0 40 0 1 138 c0 75 1 160 2 187 l2 50 93 3 92 3 0 39 0 40 -230 0 -230 0 0
-40z"/>
<path d="M4015 1518 c-53 -19 -96 -59 -121 -112 -22 -46 -24 -64 -24 -193 l0
-143 39 0 40 0 3 53 3 52 148 3 147 2 0 -55 0 -55 39 0 40 0 3 133 c2 72 1
175 -2 227 l-5 95 -140 2 c-79 1 -153 -3 -170 -9z m230 -163 l0 -90 -145 0
-145 0 2 49 c1 30 9 59 21 75 28 38 103 61 192 58 l75 -2 0 -90z"/>
<path d="M5441 1422 c-58 -1 -111 -8 -118 -14 -10 -8 -13 -52 -13 -174 l0
-164 40 0 40 0 0 130 0 130 93 0 c50 0 97 -4 103 -8 25 -16 34 -56 34 -151 l0
-101 41 0 41 0 -4 134 c-3 127 -4 136 -28 161 -50 54 -81 61 -229 57z"/>
<path d="M1824 1386 l-34 -34 0 -140 c0 -150 1 -151 52 -144 l28 4 0 117 c0
64 4 121 8 128 5 8 44 13 112 15 l105 3 3 43 3 42 -121 0 -122 0 -34 -34z"/>
<path d="M2192 1378 l3 -43 93 -2 c51 0 99 -4 108 -7 12 -5 14 -21 12 -83 l-3
-78 -62 -9 c-85 -12 -150 -1 -159 26 -11 35 20 48 108 48 l78 0 0 40 0 40 -99
0 c-83 0 -102 -3 -124 -20 -42 -33 -53 -130 -20 -175 28 -37 56 -45 169 -45
167 0 194 26 194 189 0 90 0 90 -35 126 l-36 35 -115 0 -115 0 3 -42z"/>
<path d="M2560 1257 c0 -192 0 -193 84 -184 130 13 253 128 317 297 l19 50
-43 0 -42 0 -34 -73 c-55 -113 -155 -203 -206 -183 -13 5 -15 25 -13 128 l3
123 -42 3 -43 3 0 -164z"/>
<path d="M3052 1404 c-37 -26 -52 -67 -52 -146 0 -158 29 -188 178 -188 l92 0
0 40 c0 22 -3 40 -7 40 -5 1 -43 2 -86 4 -54 2 -82 7 -88 17 -5 8 -8 46 -7 84
l3 70 104 3 c77 2 107 -1 113 -10 11 -18 10 -25 -8 -42 -11 -12 -36 -16 -95
-16 l-79 0 0 -40 0 -40 98 0 c90 0 99 2 124 25 32 29 53 92 44 128 -3 14 -20
39 -37 56 l-31 31 -122 0 c-94 0 -127 -4 -144 -16z"/>
<path d="M4461 1404 c-34 -24 -51 -74 -51 -151 0 -152 30 -183 178 -183 l92 0
0 40 c0 22 -3 40 -7 40 -84 3 -153 9 -162 14 -7 4 -11 38 -11 86 0 92 -7 87
124 80 l91 -5 0 -155 0 -155 -90 -5 -90 -5 -3 -42 -3 -43 93 0 c99 0 144 16
167 58 6 11 12 99 13 195 l3 176 -37 35 -37 36 -123 0 c-98 0 -128 -3 -147
-16z"/>
<path d="M4904 1384 c-34 -35 -34 -36 -34 -132 0 -79 4 -103 20 -130 26 -43
54 -52 161 -52 l89 0 0 40 0 40 -47 1 c-76 1 -120 6 -132 13 -14 9 -15 152 0
161 19 13 202 6 211 -8 11 -17 10 -24 -8 -41 -11 -12 -36 -16 -95 -16 l-79 0
0 -40 0 -40 96 0 c96 0 96 0 130 34 30 30 34 40 34 89 0 50 -3 58 -35 86 l-36
31 -121 0 -121 0 -33 -36z"/>
<path d="M5804 1386 l-34 -34 0 -106 c0 -103 1 -107 29 -138 l29 -33 142 -3
141 -4 -3 42 -3 41 -117 2 c-69 1 -121 6 -128 13 -7 7 -10 41 -8 85 l3 74 110
2 c152 4 151 4 147 53 l-4 40 -135 0 -135 0 -34 -34z"/>
<path d="M6180 1295 c0 -142 12 -185 57 -208 34 -18 47 -20 141 -18 l73 1 -3
40 -3 41 -84 3 c-56 3 -87 8 -93 17 -5 8 -8 52 -7 99 4 155 5 150 -41 150
l-40 0 0 -125z"/>
<path d="M6490 1231 c0 -104 -3 -196 -6 -205 -5 -13 -23 -16 -95 -16 l-89 0 0
-45 0 -45 90 0 c103 0 141 14 165 60 12 23 15 70 15 235 l0 205 -40 0 -40 0 0
-189z"/>
</g>
</svg>
